# xmcd
#
# Track frame offsets:
#	150
#	15333
#	34489
#	55062
#	58511
#	83588
#	100385
#	112779
#	116646
#	135848
#	153587
#	170776
#	172308
#	191019
#	208967
#	228424
#	230789
#	246840
#	260417
#	286769
#
# Disc length: 3865 seconds
#
# Revision: 1
# Processed by: cddbd v1.5.1PL2 Copyright (c) Steve Scherf et al.
# Submitted via: audiograbber 1.83.01
#
DISCID=190f1714
DTITLE=Various Artist - CMA Awards 2001
DYEAR=2001
DGENRE=Country
TTITLE0=Brooks and Dunn - Ain't nothin' bout you
TTITLE1=The Soggy Bottom Boys - I am a man of constant sorrow
TTITLE2=Faith Hill - If I should fall behimd
TTITLE3=The Kinleys - A favorite CMA Awards moment
TTITLE4=Sara Evans - Born to fly
TTITLE5=Trisha Yearwood - I would've loved you anyway
TTITLE6=Toby Keith - I'm just talkin' about tonight
TTITLE7=Lonestar - A favorite CMA Awards moment
TTITLE8=Alan Jackson - Where I come from
TTITLE9=Jamie O'Neal - There is no Arizona
TTITLE10=Nickel Creek - When you come back down
TTITLE11=Phil Vassar - A favorite CMA Awards moment
TTITLE12=Lee Ann Womack - Ashes by now
TTITLE13=Jessica Andrews - Helplessly, hopelessly
TTITLE14=Montgomery Gentry - She couldn't change me
TTITLE15=Chely Wright - A favorite CMA Awards moment
TTITLE16=Brad Paisley - Too country
TTITLE17=Keith Urban - Where the blacktop ends
TTITLE18=Tim McGraw - Things change
TTITLE19=data - Data Track
EXTD=
EXTT0=
EXTT1=
EXTT2=
EXTT3=
EXTT4=
EXTT5=
EXTT6=
EXTT7=
EXTT8=
EXTT9=
EXTT10=
EXTT11=
EXTT12=
EXTT13=
EXTT14=
EXTT15=
EXTT16=
EXTT17=
EXTT18=
EXTT19=
PLAYORDER=
